<svg xmlns="http://www.w3.org/2000/svg" width="20" height="20" viewBox="0 0 20 20">
  <g id="Icon" transform="translate(0 0)">
    <path id="Path_10372" data-name="Path 10372" d="M17.857-18.687H2.143A2.143,2.143,0,0,0,0-16.545V-.83A2.143,2.143,0,0,0,2.143,1.313H17.857A2.143,2.143,0,0,0,20-.83V-16.545A2.143,2.143,0,0,0,17.857-18.687Zm0,17.857H2.143V-16.545H17.857Zm-1.6-10.791a.536.536,0,0,0,0-.758l-1.006-1.014a.536.536,0,0,0-.758,0l-6.31,6.26L5.516-9.828a.536.536,0,0,0-.758,0L3.744-8.825a.536.536,0,0,0,0,.758L7.794-3.982a.536.536,0,0,0,.758,0Z" transform="translate(0 18.688)" fill="#333"/>
  </g>
</svg>