<?xml version="1.0" standalone="no"?>
<!DOCTYPE svg PUBLIC "-//W3C//DTD SVG 20010904//EN"
 "http://www.w3.org/TR/2001/REC-SVG-20010904/DTD/svg10.dtd">
<svg version="1.0" xmlns="http://www.w3.org/2000/svg"
 width="512.000000pt" height="512.000000pt" viewBox="0 0 512.000000 512.000000"
 preserveAspectRatio="xMidYMid meet">

<g transform="translate(0.000000,512.000000) scale(0.100000,-0.100000)"
fill="#000000" stroke="none">
<path d="M735 3894 c-354 -89 -657 -167 -673 -173 -15 -7 -36 -25 -45 -40 -16
-27 -17 -120 -17 -1226 0 -1285 -2 -1237 49 -1264 10 -6 315 -84 677 -175
l659 -165 265 25 c146 13 652 58 1125 99 473 41 932 82 1020 90 88 8 396 35
685 60 289 25 542 50 563 56 26 7 44 21 57 42 19 31 20 60 20 1230 0 1101 -1
1201 -17 1227 -31 53 198 29 -2773 291 -195 17 -489 43 -653 58 l-297 26 -645
-161z m2461 -214 c935 -82 1702 -150 1707 -150 4 0 7 -484 7 -1075 l0 -1074
-32 -5 c-37 -6 -3344 -296 -3370 -296 -17 0 -18 72 -18 1375 0 756 2 1375 4
1375 2 0 768 -67 1702 -150z m-1916 -1226 l0 -1356 -27 7 c-16 3 -111 27 -213
53 l-185 47 0 1249 0 1250 205 52 c113 29 208 53 213 53 4 1 7 -609 7 -1355z
m-640 0 c0 -1134 -1 -1196 -17 -1192 -10 3 -107 27 -216 54 l-197 49 2 1089 3
1090 205 52 c113 29 208 53 213 53 4 1 7 -537 7 -1195z"/>
<path d="M1983 3615 c-67 -29 -64 43 -61 -1174 l3 -1099 24 -26 c48 -51 142
-40 170 20 8 18 11 335 11 1122 0 1218 5 1128 -66 1158 -40 17 -41 17 -81 -1z"/>
<path d="M2824 3501 c-17 -11 -36 -34 -43 -52 -8 -23 -11 -305 -11 -996 0
-1037 -1 -1010 51 -1047 30 -21 88 -21 118 0 52 37 51 9 51 1049 0 1058 2
1018 -59 1049 -40 21 -69 20 -107 -3z"/>
<path d="M3659 3381 l-29 -29 0 -895 c0 -881 0 -895 20 -920 30 -38 80 -52
123 -33 71 29 67 -22 67 951 0 800 -1 879 -17 905 -34 58 -116 68 -164 21z"/>
<path d="M4543 3295 c-66 -29 -64 9 -61 -854 l3 -779 24 -26 c48 -51 142 -40
170 20 8 18 11 251 11 802 0 863 4 809 -66 838 -40 17 -41 17 -81 -1z"/>
</g>
</svg>
