<svg xmlns="http://www.w3.org/2000/svg" width="20" height="19.116" viewBox="0 0 20 19.116">
  <g id="Icon" transform="translate(0 0)">
    <path id="Path_10372" data-name="Path 10372" d="M17.857-18.687H2.143A2.143,2.143,0,0,0,0-16.545v13.83A2.143,2.143,0,0,0,2.143-.572H17.857A2.143,2.143,0,0,0,20-2.715v-13.83A2.143,2.143,0,0,0,17.857-18.687Zm0,15.973H2.143v-13.83H17.857Z" transform="translate(0 18.688)" fill="#333"/>
    <path id="Path_10373" data-name="Path 10373" d="M17.857-11.687H2.143A2.143,2.143,0,0,0,0-9.545v2.83A2.143,2.143,0,0,0,2.143-4.572H17.857A2.143,2.143,0,0,0,20-6.715v-2.83A2.143,2.143,0,0,0,17.857-11.687Z" transform="translate(0 23.688)" fill="#333"/>
  </g>
</svg>