<svg xmlns="http://www.w3.org/2000/svg" width="20" height="20" viewBox="0 0 20 20">
  <g id="Icon" transform="translate(0 0)">
    <path id="Path_10372" data-name="Path 10372" d="M17.857-18.687H2.143A2.143,2.143,0,0,0,0-16.545v4.714A2.143,2.143,0,0,0,2.143-9.687H17.857A2.143,2.143,0,0,0,20-11.83v-4.714A2.143,2.143,0,0,0,17.857-18.687Zm0,6.857H2.143v-4.714H17.857Z" transform="translate(0 18.688)" fill="#333"/>
    <path id="Path_10374" data-name="Path 10374" d="M17.857-18.687H2.143A2.143,2.143,0,0,0,0-16.545v4.714A2.143,2.143,0,0,0,2.143-9.687H17.857A2.143,2.143,0,0,0,20-11.83v-4.714A2.143,2.143,0,0,0,17.857-18.687Z" transform="translate(0 29.688)" fill="#333"/>
  </g>
</svg>